<svg width="76" height="14" fill="none" xmlns="http://www.w3.org/2000/svg"><path d="M30.06 1.567A1.13 1.13 0 0 1 31.192.439c.626 0 1.135.504 1.135 1.128 0 .622-.509 1.127-1.135 1.127a1.13 1.13 0 0 1-1.132-1.127z" fill="#273B7D"/><path d="M47.947 9.067a1.13 1.13 0 0 1 1.132-1.129c.626 0 1.135.505 1.135 1.129 0 .622-.51 1.127-1.135 1.127a1.13 1.13 0 0 1-1.132-1.127z" fill="#499FDD"/><path fill-rule="evenodd" clip-rule="evenodd" d="M7.889 6.71c0-2.033 1.5-3.51 3.565-3.51 2.073 0 3.579 1.477 3.579 3.51 0 2.034-1.506 3.51-3.58 3.51-2.065 0-3.564-1.476-3.564-3.51zm1.91 0c0 1.1.678 1.87 1.655 1.87.996 0 1.668-.752 1.668-1.87 0-1.098-.686-1.867-1.668-1.867-.977 0-1.655.769-1.655 1.868z" fill="#273B7D"/><path d="M27.864 6.886a1.676 1.676 0 0 0-.27-.377l-.063-.066.066-.062c.095-.1.192-.217.285-.353l1.823-2.689h-2.213l-1.37 2.103c-.077.113-.233.17-.468.17h-.312V1.636c0-.795-.5-.903-1.039-.903h-.923l.001 9.384h1.961V7.302h.184c.223 0 .376.026.445.146l1.082 2.026c.302.55.603.643 1.17.643h1.503l-1.12-1.836-.742-1.395M37.383 3.186c-.997 0-1.633.44-1.99.811l-.119.12-.042-.163c-.105-.398-.458-.617-.99-.617h-.878l.005 6.778h1.948V6.99c0-.305.04-.57.121-.812.217-.732.822-1.187 1.578-1.187.608 0 .845.318.845 1.14v2.952c0 .702.327 1.03 1.035 1.03h.927l-.003-4.31c0-1.713-.842-2.618-2.436-2.618M31.218 3.34h-.924l.007 5.24v1.537H32.235v-.003h.003l.004-5.745c0-.693-.334-1.03-1.025-1.03" fill="#273B7D"/><path fill-rule="evenodd" clip-rule="evenodd" d="M15.536 6.71c0-2.033 1.5-3.51 3.567-3.51 2.072 0 3.58 1.477 3.58 3.51 0 2.034-1.508 3.51-3.58 3.51-2.067 0-3.567-1.476-3.567-3.51zm1.911 0c0 1.1.68 1.87 1.656 1.87.997 0 1.668-.752 1.668-1.87 0-1.098-.688-1.867-1.668-1.867-.976 0-1.656.769-1.656 1.868z" fill="#273B7D"/><path fill-rule="evenodd" clip-rule="evenodd" d="M57.281 6.71c0-2.033 1.5-3.51 3.567-3.51 2.072 0 3.579 1.477 3.579 3.51 0 2.034-1.508 3.51-3.579 3.51-2.067 0-3.567-1.476-3.567-3.51zm1.91 0c0 1.1.681 1.87 1.657 1.87.996 0 1.668-.752 1.668-1.87 0-1.098-.688-1.867-1.668-1.867-.976 0-1.656.769-1.656 1.868z" fill="#499FDD"/><path fill-rule="evenodd" clip-rule="evenodd" d="M45.481 3.735c.143-.267.427-.413.797-.413h.905l-.007 6.216c0 2.37-1.937 3.212-3.595 3.212a5.352 5.352 0 0 1-2.382-.575l-.135-.072.218-.554.155-.38c.167-.41.41-.513.823-.39.316.114.79.24 1.31.24 1.07 0 1.66-.5 1.66-1.405v-.188l-.151.112c-.388.292-.878.435-1.498.435-1.816 0-3.084-1.41-3.084-3.426 0-2.02 1.226-3.376 3.047-3.376.915 0 1.479.32 1.793.59l.09.077.054-.103zm-2.998 2.761c0 .864.379 1.785 1.443 1.785.611 0 1.34-.298 1.34-1.721 0-1.509-.823-1.685-1.442-1.685-1.244 0-1.341 1.24-1.341 1.621zM5.939 5.146l.287.16c.695.388 1.109 1.152 1.109 2.046 0 1.66-1.28 2.731-3.265 2.731H.802V1.711a.99.99 0 0 1 .959-.975H4.03c1.785 0 2.938.953 2.938 2.428 0 .964-.488 1.522-.779 1.77l-.25.212zM2.616 3.43v-.495c0-.433.184-.639.59-.665h.81c.697 0 1.113.413 1.113 1.104 0 .527-.285 1.142-1.086 1.142H2.616V3.429zM4.2 8.502L2.616 8.5V6.62c0-.402.157-.611.504-.66H4.2c.773 0 1.271.484 1.272 1.265 0 .801-.487 1.276-1.271 1.277z" fill="#273B7D"/><path d="M73.127 3.208c-.808 0-1.59.375-2.091 1.005l-.141.177-.11-.198c-.362-.653-.982-.984-1.846-.984-.905 0-1.512.5-1.794.799l-.185.198-.07-.26c-.104-.376-.44-.583-.95-.583h-.82l-.007 6.752h1.86v-2.98c0-.262.032-.52.098-.79.178-.72.666-1.495 1.486-1.418.506.049.753.436.753 1.185v4.003h1.873v-2.98c0-.327.03-.571.104-.816.151-.688.66-1.393 1.452-1.393.572 0 .784.322.784 1.186v3.016c0 .682.307.987.994.987h.876l.001-4.31c0-1.722-.764-2.596-2.268-2.596M56.205 7.77c-.006.006-.806.843-1.86.843-.96 0-1.93-.584-1.93-1.889 0-1.126.752-1.913 1.828-1.913.35 0 .747.124.81.333l.009.036c.143.473.577.499.663.499h1.018v-.883c0-1.166-1.494-1.588-2.5-1.588-2.15 0-3.71 1.485-3.71 3.53s1.543 3.529 3.671 3.529c1.846 0 2.85-1.204 2.86-1.217l.053-.065-.806-1.328-.106.113" fill="#499FDD"/></svg>