<svg width="76" height="16" fill="none" xmlns="http://www.w3.org/2000/svg"><path fill-rule="evenodd" clip-rule="evenodd" d="M11.314 2.594c0-.896.72-1.628 1.601-1.628.882 0 1.602.732 1.614 1.628v10.17c0 .896-.72 1.628-1.601 1.628s-1.601-.732-1.601-1.628V9.508H7.318v3.256c0 1.123-.894 2.031-1.998 2.031-1.105 0-1.998-.908-1.998-2.031V2.177c0-1.123.893-2.031 1.998-2.031 1.104 0 1.998.908 1.998 2.031V5.03l3.996.214v-2.65zM2.912 2.19c0-.328.062-.644.186-.934-.583.353-.98.997-.98 1.741v9.363c0 .87.546 1.615 1.303 1.905a2.422 2.422 0 0 1-.509-1.489V2.19zm8.005.404c0-.43.137-.82.348-1.149a1.635 1.635 0 0 0-1.155 1.552v1.767l.795.038V2.594h.012zm-.856-.745c-.224.328-.348.72-.348 1.148h-.012V4.74L8.907 4.7V3.4c0-.732.496-1.35 1.154-1.552zm63.397 2.726a.125.125 0 0 1-.124-.126V3.59h-.236a.112.112 0 0 1-.112-.114c0-.063.05-.114.112-.114h.72c.062 0 .112.05.112.114 0 .063-.05.114-.112.114h-.236v.858c0 .063-.05.126-.124.126zm1.8 0c-.063 0-.125-.063-.125-.126v-.745l-.31.82c-.012.025-.037.05-.062.05s-.05-.025-.062-.05l-.31-.82v.745c0 .063-.05.126-.124.126a.125.125 0 0 1-.124-.126v-.884c0-.113.086-.202.198-.202.087 0 .161.05.186.14l.236.617.236-.618a.202.202 0 0 1 .186-.139c.112 0 .199.089.199.202v.884c0 .063-.062.126-.125.126zM8.918 11.956c0 .745.484 1.363 1.154 1.552a2.018 2.018 0 0 1-.347-1.148V9.912H8.93v2.044H8.92zm1.204-2.031h.807v2.851c0 .43.124.82.347 1.149a1.597 1.597 0 0 1-1.154-1.552V9.925zM.913 3.818c0-.745.398-1.388.981-1.742a2.26 2.26 0 0 0-.186.921v9.363c0 .34.075.644.186.934a2.032 2.032 0 0 1-.98-1.742V3.818zm25.829 7.053V7.855h-4.32v3.016c0 .328-.26.593-.57.593a.607.607 0 0 1-.596-.593V3.994c0-.315.273-.593.583-.593.323 0 .584.278.584.593v2.801h4.319v-2.8c0-.316.26-.594.583-.594.323 0 .583.278.583.593v6.877c0 .328-.26.593-.583.593-.323.013-.583-.265-.583-.593zm1.998-2.347c0-1.653 1.105-3.016 2.855-3.016 1.774 0 2.854 1.363 2.854 3.016 0 1.666-1.092 3.028-2.854 3.028-1.75 0-2.855-1.35-2.855-3.028zm4.617 0c0-1.085-.62-2.057-1.762-2.057-1.13 0-1.763.972-1.763 2.057 0 1.098.633 2.07 1.762 2.07 1.142.012 1.763-.972 1.763-2.07zm9.991-.139c0-1.514-1.055-2.864-2.755-2.864-1.651 0-2.843 1.338-2.843 3.016 0 .5.095.954.266 1.35l-.051.056c-.27.294-.609.663-.996.663-.36 0-.547-.303-.547-.707V6.606h.745a.473.473 0 1 0 0-.946h-.745V4.562a.532.532 0 0 0-.52-.542.534.534 0 0 0-.534.542V5.66h-.534a.481.481 0 0 0-.472.467c0 .265.224.48.472.48h.534v3.532c0 .896.459 1.413 1.352 1.413.336 0 .571-.05.807-.164.356-.175.833-.54.953-.766.525.598 1.299.943 2.2.943.757 0 1.427-.202 1.985-.618a.421.421 0 0 0 .187-.353.422.422 0 0 0-.422-.43c-.1 0-.174.013-.236.064a2.343 2.343 0 0 1-1.403.466c-1.141 0-1.837-.82-1.923-1.791h3.86c.397 0 .62-.19.62-.518zm-1.03-.277h-3.463c.062-.783.596-1.704 1.738-1.716 1.191 0 1.7.959 1.725 1.716zm1.7-4.164v6.99c0 .303.236.543.521.543.286 0 .534-.24.534-.543v-6.99a.54.54 0 0 0-.534-.53.529.529 0 0 0-.52.53zm1.738 6.586c0-.265.198-.466.46-.466.098 0 .185.037.26.088.434.328.993.542 1.588.542.795 0 1.217-.328 1.217-.82 0-.568-.646-.757-1.366-.933l-.008-.002c-.953-.227-2.077-.494-2.077-1.727 0-.921.77-1.704 2.16-1.704.782 0 1.402.24 1.886.593.1.089.187.202.187.354 0 .24-.199.441-.435.441a.388.388 0 0 1-.236-.088c-.36-.278-.856-.442-1.39-.442-.72 0-1.166.29-1.166.745 0 .505.608.669 1.315.833.98.227 2.16.504 2.16 1.817 0 .984-.794 1.766-2.284 1.766-.782 0-1.49-.202-2.06-.643-.137-.05-.211-.202-.211-.354zm6.652.265a.748.748 0 0 0-.732-.744c-.397 0-.72.34-.732.744 0 .404.335.745.732.745.397 0 .732-.34.732-.745zm8.34-5.287c-1.75 0-2.854 1.363-2.854 3.016 0 .087.003.173.009.259l-.099.174c-.03.055-.06.106-.084.148-.608.971-1.352 1.526-2.11 1.501-1.104-.038-1.824-.883-1.824-2.07 0-1.185.707-2.056 1.824-2.056.447 0 .82.126 1.142.442a.555.555 0 0 0 .323.113c.26 0 .472-.214.472-.492a.548.548 0 0 0-.162-.353c-.434-.404-.993-.669-1.8-.669-1.712 0-2.891 1.287-2.916 3.003 0 1.729 1.167 3.028 2.88 3.028.819 0 1.489-.302 1.948-.757.24-.244.46-.474.7-.84.44.952 1.342 1.597 2.552 1.597 1.762 0 2.854-1.362 2.854-3.028 0-1.653-1.08-3.016-2.854-3.016zm0 .96c1.143 0 1.763.971 1.763 2.056 0 1.098-.62 2.082-1.762 2.07-1.13 0-1.763-.972-1.763-2.07 0-1.085.633-2.057 1.763-2.057zm11.593 4.466V7.25c0-1.149-.546-1.729-1.614-1.742-.831 0-1.6.53-1.923 1.073-.174-.618-.683-1.073-1.54-1.073-.843 0-1.588.606-1.824.96v-.329a.534.534 0 0 0-.534-.542c-.273 0-.508.24-.508.542v4.808c0 .29.235.53.533.53.273 0 .522-.24.522-.53v-3.23c.285-.417.844-1.11 1.39-1.11.707 0 .993.315.993.983v3.357c0 .29.248.53.533.53.298 0 .534-.24.534-.53v-3.28c.26-.417.831-1.073 1.402-1.073.683 0 .98.315.98.984v3.356c0 .29.237.53.522.53a.54.54 0 0 0 .534-.53z" fill="#EE2841"/></svg>