<svg width="61" height="18" fill="none" xmlns="http://www.w3.org/2000/svg"><path d="M29.602 13.81H27.74c-.008 0-.013-.001-.018-.007l-1.605-1.957-1.606 1.957c-.004.006-.01.007-.018.007h-1.491c-.01 0-.016-.004-.022-.014-.003-.006-.003-.017.003-.023l2.363-2.898-2.336-2.87a.03.03 0 0 1-.004-.028c.004-.005.014-.013.021-.013h1.863c.006 0 .013.003.018.011l1.407 1.742 1.433-1.743a.02.02 0 0 1 .018-.01h1.519c.009 0 .018.008.021.013.005.01.003.02-.003.027l-2.218 2.659 2.533 3.11c.007.006.01.017.004.023a.022.022 0 0 1-.02.014z" fill="#072F54"/><path fill-rule="evenodd" clip-rule="evenodd" d="M42.366 11.264a.025.025 0 0 0 .02-.011c.003-.018.047-.601.047-.852 0-1.549-1.076-2.675-2.75-2.675-1.837 0-3.167 1.335-3.167 3.174s1.33 3.174 3.166 3.174c.708 0 1.609-.257 2.505-.634.008-.002.013-.01.015-.02l.001-1.309c0-.018-.017-.033-.035-.023-.964.512-1.646.73-2.288.73-1.044 0-1.688-.563-1.777-1.554h4.263zm-4.233-.902c.161-.868.724-1.368 1.55-1.368.743 0 1.256.617 1.256 1.312v.056h-2.806zM50.255 13.786c0 .015.01.024.024.024h1.53c.013 0 .023-.009.023-.024V7.988a.022.022 0 0 0-.019-.023h-1.54a.024.024 0 0 0-.018.023v5.798zm-.158-7.962c0 .515.425.933.948.933.523 0 .95-.418.95-.933a.954.954 0 0 0-.95-.958.954.954 0 0 0-.948.958zM31.503 7.964c.46-.158.9-.238 1.334-.238 1.847 0 3.139 1.296 3.139 3.149 0 1.944-1.358 3.2-3.456 3.2a7.12 7.12 0 0 1-.99-.09v2.892a3.537 3.537 0 0 1-1.58.62v-9.51c0-.012.009-.023.021-.023h1.532zm.026 4.847c.327.087.611.126.89.126 1.18 0 1.942-.813 1.942-2.072 0-1.167-.716-1.953-1.784-1.953-.329 0-.662.057-1.045.179l-.003 3.72zM47.476 7.93V4.893a3.41 3.41 0 0 1 1.58-.621v9.267c-.476.337-.96.505-1.381.585V13.6c-.638.328-1.18.473-1.76.473-1.672 0-2.888-1.317-2.888-3.134 0-1.824 1.378-3.198 3.204-3.198.4 0 .796.06 1.245.187zm-1.311 4.896c.403 0 .831-.119 1.311-.37v-3.32c-.367-.165-.669-.241-.979-.241-1.124 0-1.852.84-1.852 2.139 0 1.122.57 1.792 1.52 1.792zM58.683 7.83c.035 0 .066.028.066.064l-.002 5.643a3.586 3.586 0 0 1-1.346.588v-.746c-.577.663-1.194.696-1.675.696-1.797 0-3.005-1.237-3.005-3.083 0-1.825 1.35-3.25 3.071-3.25.483 0 .972.116 1.547.367h.032v-.211c0-.035.03-.067.067-.067l1.245-.001zm-2.733 5.01c.355 0 .753-.129 1.216-.396V9.241c-.425-.224-.772-.333-1.058-.333-1.067 0-1.785.858-1.785 2.138 0 1.126.61 1.794 1.627 1.794z" fill="#072F54"/><path d="M18.742 12.36l3.865-.002a3.482 3.482 0 0 1-.54 1.45H18.048a.956.956 0 0 1-.945-.862l-.006-.02V5.316c0-.006.003-.014.006-.019a.957.957 0 0 1 .945-.864l.044.002 4.508-.001c-.06.43-.205.948-.54 1.46h-3.317v2.072h3.284c.013 0 .023.01.023.023v1.436c0 .012-.01.023-.023.023h-3.284V12.359z" fill="#072F54"/><path fill-rule="evenodd" clip-rule="evenodd" d="M13.179 13.266c0-.444.334-.738.726-.738.386 0 .722.294.722.738a.714.714 0 0 1-.723.735c-.423 0-.725-.315-.725-.735zm.107 0c0 .365.237.663.619.663.344 0 .613-.272.613-.663 0-.39-.27-.663-.614-.663-.347 0-.617.273-.617.663z" fill="#072F54"/><path fill-rule="evenodd" clip-rule="evenodd" d="M13.929 12.83c.21 0 .318.074.318.25 0 .158-.096.222-.228.238l.245.383h-.163l-.226-.373h-.133v.373h-.144v-.872h.33zm-.198.107v.268h.168c.114 0 .214-.01.214-.143 0-.111-.108-.125-.2-.125h-.182zM59.294 8.266c0-.443.334-.737.725-.737.386 0 .721.294.721.737a.713.713 0 0 1-.72.735c-.425 0-.726-.315-.726-.735zm.106 0c0 .365.237.663.62.663.343 0 .613-.271.613-.663 0-.39-.27-.662-.614-.662-.348 0-.62.272-.62.662z" fill="#072F54"/><path fill-rule="evenodd" clip-rule="evenodd" d="M60.043 7.829c.21 0 .319.075.319.25 0 .159-.097.224-.229.239l.244.383h-.161l-.227-.373h-.135v.373h-.142v-.872h.33zm-.198.108v.268h.169c.112 0 .213-.01.213-.143 0-.111-.108-.125-.2-.125h-.182z" fill="#072F54"/><path d="M8.92 5.889l-.281-.792-2.377-3.171.427-.106 4.098 3.537 2.412-.689a3.46 3.46 0 0 1 .851-.087A6.93 6.93 0 0 0 10.073.959c-3.62-1.288-7.6.6-8.888 4.215a6.903 6.903 0 0 0-.326 3.37L6.637 6.54l2.282-.651zM14.304 5.206a3.719 3.719 0 0 1-.832.416l-2.417.689-1.613 5.168-.418.136.34-3.947-.19-.82-2.265.645L.922 8.9a6.944 6.944 0 0 0 4.483 5.149c3.621 1.288 7.6-.601 8.888-4.214a6.91 6.91 0 0 0 .01-4.63z" fill="#072F54"/><path d="M9.174 6.848l.19.82-.34 3.946.418-.136 1.613-5.167 2.417-.688c.309-.1.62-.28.832-.417a7.008 7.008 0 0 0-.254-.625 3.54 3.54 0 0 0-.85.087l-2.412.69-4.1-3.538-.426.106 2.376 3.171.281.791-2.283.653L.859 8.543c.018.12.039.239.063.357L6.91 7.493l2.265-.645z" fill="#FBC108"/></svg>