<svg width="47" height="19" fill="none" xmlns="http://www.w3.org/2000/svg"><path fill-rule="evenodd" clip-rule="evenodd" d="M16.251 8.08V3.544c0-.373-.062-.621-.124-.87-.124-.249-.371-.373-.62-.31-.247 0-.433.061-.495.248a1.053 1.053 0 0 0-.186.621v.187c-.248-.311-.557-.622-.929-.808-.372-.187-.805-.249-1.177-.249s-.681.062-.93.31c-.309.125-.557.312-.805.56-.247.249-.433.56-.557.933a4.02 4.02 0 0 0-.186 1.243c0 .56.062 1.181.31 1.678.186.435.495.808.867 1.12.434.31.867.434 1.363.434.372 0 .743-.062 1.115-.248.372-.187.62-.436.867-.746-.062.497-.062.87-.062 1.119-.03.093-.062.202-.092.31a8.046 8.046 0 0 1-.093.311c-.124.249-.31.373-.496.497-.31.125-.62.187-.93.187-.123 0-.309 0-.495-.062l-.372-.187c-.043-.044-.087-.08-.129-.114a.63.63 0 0 1-.18-.197l-.248-.31c-.186-.187-.372-.311-.62-.311a.702.702 0 0 0-.495.186c-.124.063-.186.249-.186.435.062.311.186.56.372.746.31.25.62.435.99.56.434.186.93.248 1.426.248.495 0 .99-.062 1.425-.124.31-.124.681-.31.929-.56.248-.248.433-.559.557-.932.124-.435.186-.932.186-1.367zM12.162 6.9c-.31-.435-.495-.933-.433-1.43-.062-.497.124-1.057.372-1.43.247-.31.619-.497 1.053-.497.433 0 .867.187 1.115.56.31.435.495.932.433 1.491.062.311-.062.684-.185.995-.124.249-.31.497-.558.622a1.645 1.645 0 0 1-.743.186c-.372 0-.806-.186-1.053-.497zM25.915 6.838c.186-.436.248-.87.248-1.306 0-.435-.062-.87-.31-1.305-.123-.373-.371-.684-.62-.995-.309-.31-.619-.56-.99-.683a3.576 3.576 0 0 0-2.54 0c-.372.124-.744.31-.991.621a2.708 2.708 0 0 0-.62.995c-.31.87-.31 1.802 0 2.61.248.746.867 1.368 1.61 1.679.434.186.868.248 1.302.248.433 0 .867-.062 1.3-.248.372-.125.744-.311.992-.622.248-.249.495-.621.62-.994zM24.181 4.04c.31.435.495.933.433 1.492a1.89 1.89 0 0 1-.433 1.43c-.248.373-.682.56-1.115.56-.31 0-.558-.063-.806-.25-.248-.124-.433-.372-.557-.683-.248-.746-.248-1.492 0-2.176.124-.248.31-.497.557-.683.248-.187.496-.25.806-.25.433 0 .867.187 1.115.56zM34.588 7.708v.124a.865.865 0 0 0 .124.684c.186.186.372.249.558.249a.784.784 0 0 0 .557-.25c.124-.186.186-.434.186-.683v-6.9c0-.248-.062-.497-.186-.683C35.704.062 35.456 0 35.27 0c-.248 0-.434.062-.558.249a1.66 1.66 0 0 0-.186.746v2.3c-.074-.06-.144-.12-.213-.178-.222-.186-.433-.364-.716-.506a2.423 2.423 0 0 0-1.115-.249c-.681 0-1.363.31-1.858.808-.496.56-.744 1.306-.744 2.3 0 .435.062.87.186 1.305.124.373.31.746.558 1.057.185.311.495.497.805.684.31.186.681.249 1.053.249.31 0 .558-.063.805-.125.248-.124.496-.248.682-.373.187-.094.339-.258.482-.414.046-.05.092-.1.137-.145zm-2.911-1.119a2.912 2.912 0 0 1-.186-1.057c-.062-.373 0-.684.124-1.056.124-.25.31-.498.62-.684.185-.187.495-.249.743-.249.247 0 .495.062.743.249.248.186.434.435.558.684.123.31.185.683.185 1.056s-.061.746-.185 1.12c-.124.31-.31.496-.558.683a1.645 1.645 0 0 1-.743.186c-.248 0-.496-.124-.744-.248a1.942 1.942 0 0 1-.557-.684zM43.014 8.516a4.859 4.859 0 0 0 1.115-.684c.07.094.13.187.19.278.098.15.19.29.305.406.124.186.31.249.496.249a.702.702 0 0 0 .495-.187c.186-.124.248-.249.248-.435 0-.187-.062-.435-.124-.622-.062-.31-.123-.621-.123-.932V4.786c0-.497-.063-.994-.248-1.43-.186-.31-.496-.621-.868-.745-.495-.187-1.053-.249-1.61-.249-.558 0-1.053.062-1.425.249-.372.124-.682.31-.93.621-.185.249-.31.498-.31.808 0 .187.063.311.187.436a.561.561 0 0 0 .433.186c.124 0 .248-.062.372-.124a1.89 1.89 0 0 0 .31-.435c.124-.187.31-.373.495-.498.248-.124.558-.186.868-.186.495 0 .805.124.929.31.186.311.248.622.248.933a6.99 6.99 0 0 1-.93.249c-.247.124-.619.186-.99.248l-.744.125c-.434.062-.806.31-1.115.621-.31.311-.434.746-.434 1.12 0 .31.062.62.248.87.124.248.372.497.681.62.31.187.682.25 1.053.25.372 0 .806-.125 1.178-.25zm.195-2.7c.28-.054.591-.115.858-.222l-.062.249c.062.435 0 .808-.186 1.181-.124.187-.31.373-.558.497-.31.125-.557.187-.867.187-.248 0-.495-.062-.681-.249-.186-.186-.31-.373-.31-.621a.79.79 0 0 1 .248-.56c.124-.124.31-.186.495-.248.093 0 .217-.032.372-.07.155-.04.34-.086.557-.117l.134-.026zM3.49 8.516a4.857 4.857 0 0 0 1.115-.684c.185.249.371.497.495.684.124.186.31.249.496.249a.702.702 0 0 0 .495-.187c.124-.124.248-.249.248-.435 0-.187-.062-.435-.124-.622-.062-.31-.124-.621-.124-.932V4.786c0-.497-.062-.994-.247-1.43a1.466 1.466 0 0 0-.868-.745c-.495-.187-1.053-.249-1.61-.249-.558 0-1.054.062-1.487.249-.372.124-.682.31-.93.621-.185.249-.31.498-.31.808 0 .187.063.373.187.436a.562.562 0 0 0 .433.186c.124 0 .248 0 .372-.124.062-.063.186-.187.31-.435.124-.187.31-.373.557-.436.248-.124.558-.186.868-.186.433 0 .743.062.867.249.186.31.248.621.248.932a5.067 5.067 0 0 0-.54.15c-.117.038-.227.073-.328.099-.247.124-.62.186-.99.248l-.744.125c-.434.062-.806.31-1.115.621-.31.311-.434.746-.434 1.12 0 .31.062.62.248.87.124.248.372.497.681.62.31.187.682.25 1.053.25.372 0 .806-.125 1.177-.25zm.195-2.7c.28-.054.591-.115.858-.222l-.062.249c.062.435 0 .808-.186 1.181-.124.187-.31.373-.558.497-.31.125-.557.187-.867.187-.248 0-.496-.062-.681-.249-.186-.186-.31-.373-.31-.621a.79.79 0 0 1 .248-.56c.123-.124.31-.186.495-.248.186 0 .496-.063.93-.187l.133-.026z" fill="#929091"/><path d="M3.304 12.432c1.672 0 2.973 1.367 2.973 2.984a2.98 2.98 0 0 1-2.973 2.983C1.63 18.4.33 17.032.33 15.416a2.98 2.98 0 0 1 2.974-2.984z" fill="#ED2A28"/><path d="M13.216 12.432c1.672 0 2.973 1.367 2.973 2.984a2.98 2.98 0 0 1-2.973 2.983c-1.673 0-2.974-1.367-2.974-2.983 0-1.679 1.301-2.984 2.974-2.984z" fill="#F59E22"/><path d="M23.066 12.432c1.672 0 2.973 1.367 2.973 2.984a2.98 2.98 0 0 1-2.973 2.983c-1.673 0-2.974-1.367-2.974-2.983a2.98 2.98 0 0 1 2.974-2.984z" fill="#16AC5B"/><path d="M32.978 12.432c1.672 0 2.973 1.367 2.973 2.984a2.98 2.98 0 0 1-2.973 2.983c-1.673 0-2.974-1.367-2.974-2.983 0-1.679 1.301-2.984 2.974-2.984z" fill="#8252A1"/><path d="M42.89 12.432c1.672 0 2.973 1.367 2.973 2.984a2.98 2.98 0 0 1-2.973 2.983c-1.673 0-2.974-1.367-2.974-2.983-.062-1.679 1.301-2.984 2.974-2.984z" fill="#347FC2"/></svg>