<svg width="15" height="11" fill="#BFDAF9" xmlns="http://www.w3.org/2000/svg"><path fill-rule="evenodd" clip-rule="evenodd" d="M10.875 5.5c1.035 0 1.867-.88 1.867-1.964 0-1.085-.832-1.965-1.867-1.965C9.84 1.571 9 2.451 9 3.536 9 4.62 9.84 5.5 10.875 5.5zM5.25 4.714c1.245 0 2.242-1.053 2.242-2.357C7.492 1.053 6.495 0 5.25 0S3 1.053 3 2.357c0 1.304 1.005 2.357 2.25 2.357zm5.625 2.357c-1.373 0-4.125.723-4.125 2.161V11H15V9.232c0-1.438-2.752-2.16-4.125-2.16zM5.25 6.286c-1.748 0-5.25.919-5.25 2.75V11h5.25V9.232c0-.668.247-1.838 1.777-2.726-.652-.142-1.282-.22-1.777-.22z"/></svg>
